<svg width="48" height="48" viewBox="0 0 48 48" fill="none" xmlns="http://www.w3.org/2000/svg">
<rect width="48" height="48" rx="12" fill="#FFC876"/>
<path fill-rule="evenodd" clip-rule="evenodd" d="M24 16C17.3726 16 11.9444 20.6334 10.2839 26.5C11.9444 32.3666 17.3726 37 24 37C30.6274 37 36.0556 32.3666 37.7161 26.5C36.0556 20.6334 30.6274 16 24 16ZM8.19475 25.7631C8.07155 26.0708 8.07155 26.9292 8.19475 27.2369C10.0345 33.9813 16.3553 39 24 39C31.6447 39 37.9655 33.9813 39.8052 27.2369C39.9284 26.9292 39.9284 26.0708 39.8052 25.7631C37.9655 19.0187 31.6447 14 24 14C16.3553 14 10.0345 19.0187 8.19475 25.7631Z" fill="#0E0C15"/>
<path fill-rule="evenodd" clip-rule="evenodd" d="M24 22C21.7909 22 20 23.7909 20 26C20 28.2091 21.7909 30 24 30C26.2091 30 28 28.2091 28 26C28 23.7909 26.2091 22 24 22ZM18 26C18 22.6863 20.6863 20 24 20C27.3137 20 30 22.6863 30 26C30 29.3137 27.3137 32 24 32C20.6863 32 18 29.3137 18 26Z" fill="#0E0C15"/>
<circle cx="24" cy="26" r="2" fill="#0E0C15"/>
</svg>
