<svg width="48" height="48" viewBox="0 0 48 48" fill="none" xmlns="http://www.w3.org/2000/svg">
<rect width="48" height="48" rx="12" fill="#FFC876"/>
<path fill-rule="evenodd" clip-rule="evenodd" d="M24 14C22.8954 14 22 14.8954 22 16V20H16C14.8954 20 14 20.8954 14 22V26C14 27.1046 14.8954 28 16 28H22V32C22 33.1046 22.8954 34 24 34H28C29.1046 34 30 33.1046 30 32V28H34C35.1046 28 36 27.1046 36 26V22C36 20.8954 35.1046 20 34 20H30V16C30 14.8954 29.1046 14 28 14H24ZM24 16H28V22H34V26H28V32H24V26H18V22H24V16Z" fill="#0E0C15"/>
</svg>
