<svg width="48" height="48" viewBox="0 0 48 48" fill="none" xmlns="http://www.w3.org/2000/svg">
<rect width="48" height="48" rx="12" fill="#FFC876"/>
<path fill-rule="evenodd" clip-rule="evenodd" d="M32.7071 15.2929C33.0976 15.6834 33.0976 16.3166 32.7071 16.7071L30.7071 18.7071L27.2929 15.2929L29.2929 13.2929C29.6834 12.9024 30.3166 12.9024 30.7071 13.2929L32.7071 15.2929ZM25.8787 16.7071L15.2929 27.2929C15.1054 27.4804 15 27.7348 15 28V32C15 32.5523 15.4477 33 16 33H20C20.2652 33 20.5196 32.8946 20.7071 32.7071L31.2929 22.1213L25.8787 16.7071ZM28.7071 19.2929L29.2929 18.7071L32.7071 22.1213L32.1213 22.7071L28.7071 19.2929ZM27.2929 20.7071L31.2929 24.7071L21.4142 34.5858C20.6332 35.3668 19.5783 35.8 18.4853 35.8H14C12.3431 35.8 11 34.4569 11 32.8V28.3147C11 27.2217 11.4332 26.1668 12.2142 25.3858L22.0929 15.5071L27.2929 20.7071Z" fill="#0E0C15"/>
</svg>
